<?xml version="1.0" encoding="UTF-8"?>
<!DOCTYPE svg PUBLIC "-//W3C//DTD SVG 1.1//EN" "http://www.w3.org/Graphics/SVG/1.1/DTD/svg11.dtd">
<!-- Creator: CorelDRAW -->
<svg xmlns="http://www.w3.org/2000/svg" xml:space="preserve" width="6.82666in" height="6.82666in" style="shape-rendering:geometricPrecision; text-rendering:geometricPrecision; image-rendering:optimizeQuality; fill-rule:evenodd; clip-rule:evenodd"
viewBox="0 0 6.82666 6.82666"
 xmlns:xlink="http://www.w3.org/1999/xlink">
 <defs>
  <style type="text/css">
   <![CDATA[
    .fil3 {fill:none}
    .fil0 {fill:#7E7E7E;fill-rule:nonzero}
    .fil1 {fill:#9C9C9D;fill-rule:nonzero}
    .fil2 {fill:#FBFBFC;fill-rule:nonzero}
   ]]>
  </style>
 </defs>
 <g id="Layer_x0020_1">
  <metadata id="CorelCorpID_0Corel-Layer"/>
  <polygon class="fil0" points="0.853331,2.0351 5.97333,2.0351 5.97333,4.78228 0.853331,4.78228 "/>
  <g id="_273734336">
   <polygon id="_273734696" class="fil1" points="0.853331,4.92822 5.97333,4.92822 5.97333,4.63634 0.853331,4.63634 "/>
   <polygon id="_273734672" class="fil1" points="0.853331,2.18104 5.97333,2.18104 5.97333,1.88916 0.853331,1.88916 "/>
  </g>
  <path class="fil2" d="M4.87599 2.80856l0.278193 0 0 1.45144 0.266094 0 0 -1.45144 0.278197 0 0 -0.241906 -0.822484 0 0 0.241906zm-0.539012 0c0.0467638,-0.000405512 0.0814409,0.0137126 0.103213,0.0415276 0.0217677,0.0282244 0.0326575,0.0725709 0.032252,0.132646l0 0.166913c0,0.0447559 -0.00644882,0.0802362 -0.0193543,0.106445 -0.0128976,0.0262008 -0.0310433,0.0451535 -0.0548268,0.0564409 -0.0237913,0.0108898 -0.0524213,0.0165315 -0.0854803,0.016126l-0.104016 0 0 -0.520098 0.128213 0zm0.433008 1.45144c-0.0129016,-0.0310394 -0.0209606,-0.0628976 -0.0245906,-0.0955512 -0.00322835,-0.0326575 -0.00483858,-0.0693465 -0.00443701,-0.110067l0 -0.26126c0.000405512,-0.0588661 -0.00524016,-0.112087 -0.016126,-0.159657 -0.0112874,-0.0471732 -0.0298386,-0.0878937 -0.0556378,-0.12176 -0.0258071,-0.0338661 -0.0608819,-0.0604803 -0.104827,-0.0790236 0.0592677,-0.0278228 0.102811,-0.0701535 0.131437,-0.127406 0.028626,-0.0568465 0.0427362,-0.12902 0.0427362,-0.216102l0 -0.133051c0.000405512,-0.0870866 -0.0133031,-0.159657 -0.041126,-0.217315 -0.0274134,-0.0576535 -0.0701535,-0.100795 -0.128209,-0.129417 -0.0584606,-0.028626 -0.133453,-0.0427362 -0.224972,-0.0427362l-0.401567 0 0 1.69335 0.266098 0 0 -0.689437 0.0919213 0c0.0403228,-0.000393701 0.073378,0.00685433 0.0987835,0.0209724 0.0258031,0.0141063 0.044752,0.0370906 0.057252,0.0685354 0.0120906,0.0318543 0.0181378,0.0737795 0.0181378,0.125795l0 0.266098c0,0.0342677 0.000811024,0.0624882 0.00161811,0.0846654 0.00120472,0.0221732 0.0028189,0.040315 0.00523622,0.0548346 0.00201969,0.0141063 0.00443701,0.0266063 0.00766142,0.0370906 0.00282283,0.0104803 0.00605118,0.0209685 0.00967717,0.0314449l0.270933 0zm-1.46793 -1.39339l0.128213 0.85635 -0.256425 0 0.128213 -0.85635zm0.208043 -0.299961l-0.389476 0 -0.270933 1.69335 0.244331 0 0.0459567 -0.30722 0.326579 0 0.0459606 0.30722 0.268512 0 -0.270929 -1.69335zm-1.47519 0.241906l0.278189 0 0 1.45144 0.266102 0 0 -1.45144 0.278193 0 0 -0.241906 -0.822484 0 0 0.241906zm-0.899453 0.164496c0.000397638,0.0689449 0.0100748,0.130228 0.028622,0.18385 0.0189528,0.053622 0.0435472,0.102008 0.0745866,0.14474 0.0306457,0.0427402 0.0645079,0.082252 0.101602,0.118134 0.036689,0.0358819 0.0737835,0.0705512 0.110472,0.103614 0.0370866,0.0330669 0.0709567,0.0669291 0.101602,0.101602 0.0310394,0.0342677 0.0556339,0.0717598 0.0745827,0.111677 0.0185472,0.0399173 0.0282283,0.0842677 0.0286299,0.133858 0,0.0399094 -0.00564961,0.0721654 -0.0169331,0.0963583 -0.0112913,0.0241929 -0.0270157,0.0415276 -0.0475787,0.0524173 -0.0205591,0.0104803 -0.0451535,0.016126 -0.073378,0.0157205 -0.0282244,0.000405512 -0.052815,-0.00483858 -0.073378,-0.0157205 -0.0205591,-0.0108898 -0.0362874,-0.0282244 -0.0475748,-0.0524173 -0.0112874,-0.0241929 -0.0169331,-0.0560433 -0.0169331,-0.0963583l0 -0.120949 -0.251583 0 0 0.104016c0,0.0907126 0.0149173,0.167319 0.0447559,0.230618 0.0298268,0.0632992 0.0741811,0.111677 0.133047,0.145142 0.0588622,0.033063 0.131839,0.0495945 0.218921,0.0499961 0.0870906,-0.000401575 0.160063,-0.0169331 0.218925,-0.0499961 0.0588661,-0.0334646 0.10322,-0.0818425 0.133051,-0.145142 0.0298386,-0.0632992 0.044752,-0.139906 0.044752,-0.230618 -0.000401575,-0.0689449 -0.0100787,-0.130228 -0.028626,-0.18385 -0.0189488,-0.053622 -0.0435394,-0.102008 -0.0745866,-0.14474 -0.0306378,-0.0427402 -0.0645079,-0.082252 -0.101598,-0.118134 -0.0366929,-0.0358819 -0.0737835,-0.0705512 -0.110472,-0.103614 -0.0370945,-0.0330669 -0.0709606,-0.0669291 -0.101602,-0.101602 -0.0310433,-0.0342677 -0.0556417,-0.0717598 -0.0745866,-0.111677 -0.0185512,-0.0399173 -0.0282205,-0.0846732 -0.028626,-0.133858 0.000405512,-0.0600709 0.011689,-0.102811 0.0346693,-0.12902 0.0229843,-0.0257992 0.0556378,-0.0387047 0.0983819,-0.0378976 0.0427362,-0.000807087 0.0753898,0.0120984 0.098374,0.0378976 0.0229843,0.0262087 0.0342677,0.0689488 0.0346732,0.12902l0 0.0701575 0.251583 0 0 -0.0532244c0,-0.0907126 -0.0149134,-0.167724 -0.0439488,-0.23102 -0.0294291,-0.0632992 -0.073378,-0.111276 -0.131437,-0.14474 -0.0580551,-0.033063 -0.13022,-0.0495945 -0.216508,-0.0499961 -0.0862756,0.000401575 -0.158445,0.0169331 -0.2165,0.0499961 -0.0580591,0.0334646 -0.102004,0.0814409 -0.131441,0.14474 -0.0290236,0.0632953 -0.0439409,0.140307 -0.0439409,0.23102l0 0z"/>
  <rect class="fil3" width="6.82666" height="6.82666"/>
 </g>
</svg>
